<svg id="Layer_1" height="512" viewBox="0 0 64 64" fill="#09b294" width="512" xmlns="http://www.w3.org/2000/svg" data-name="Layer 1"><path d="m5 38a1 1 0 0 0 -1 1v23a1 1 0 0 0 1 1h9a1 1 0 0 0 1-1v-23a1 1 0 0 0 -1-1zm8 23h-7v-21h7z"/><path d="m20 44a1 1 0 0 0 -1 1v17a1 1 0 0 0 1 1h9a1 1 0 0 0 1-1v-17a1 1 0 0 0 -1-1zm8 17h-7v-15h7z"/><path d="m35 49a1 1 0 0 0 -1 1v12a1 1 0 0 0 1 1h9a1 1 0 0 0 1-1v-12a1 1 0 0 0 -1-1zm8 12h-7v-10h7z"/><path d="m49 55v7a1 1 0 0 0 1 1h9a1 1 0 0 0 1-1v-7a1 1 0 0 0 -1-1h-9a1 1 0 0 0 -1 1zm2 1h7v5h-7z"/><path d="m9.5 35a8 8 0 1 0 -8-8 8.009 8.009 0 0 0 8 8zm0-14a6 6 0 1 1 -6 6 6.006 6.006 0 0 1 6-6z"/><path d="m10 29.124h-1a.5.5 0 0 1 -.5-.5h-2a2.5 2.5 0 0 0 2 2.449v1.051h2v-1.051a2.5 2.5 0 0 0 -.5-4.949h-1a.5.5 0 1 1 0-1h1a.5.5 0 0 1 .5.5h2a2.5 2.5 0 0 0 -2-2.45v-1.05h-2v1.05a2.5 2.5 0 0 0 .5 4.95h1a.5.5 0 0 1 0 1z"/><path d="m49.03 46.736.927 1.772 5.013-2.622a1 1 0 0 0 .423-1.349l-2.623-5.013-1.77.927 1.624 3.1a128.179 128.179 0 0 1 -33.113-12.411l-1.022 1.719a130.083 130.083 0 0 0 33.143 12.516z"/><path d="m62.471 9.118-15-8a1 1 0 0 0 -.942 0l-15 8a1 1 0 0 0 -.529.882v16a1 1 0 0 0 .529.882l15 8a1 1 0 0 0 .942 0l15-8a1 1 0 0 0 .529-.882v-16a1 1 0 0 0 -.529-.882zm-16.471 23.215-13-6.933v-13.627l13 7.857zm1-14.433-12.977-7.846 12.977-6.921 12.977 6.921zm14 7.5-13 6.933v-12.703l13-7.857z"/></svg>