<svg height="512pt" viewBox="0 -96 512.002 512" fill="#09b294" width="512pt" xmlns="http://www.w3.org/2000/svg"><path d="m485.300781 158.214844c-8.660156-6.667969-18.207031-11.707032-28.324219-15.042969 8.753907-2.058594 17.796876-3.734375 26.113282-4.921875 10.191406-1.453125 16.640625-11.742188 13.457031-21.566406-10.90625-33.597656-13.890625-48.484375-30.171875-67.164063l-38.296875-43.933593c-5.230469-6.003907-13.960937-7.335938-20.75-3.171876l-11.957031 7.34375c-6.828125 4.191407-9.601563 12.878907-6.449219 20.210938 3.113281 7.25 7.464844 20.613281 4.183594 33.164062l-2.132813-6.539062c-1.445312-4.433594-4.378906-8.296875-8.253906-10.882812l-25.316406-16.890626c-9.566406-6.382812-22.546875-3.792968-28.933594 5.777344-6.398438 9.589844-3.816406 22.535156 5.777344 28.933594l15.425781 10.289062c-.5-.058593-1-.113281-1.503906-.148437-33.882813-22.261719-55.003907-26.050781-68.195313-29.300781-32.210937-7.933594-62.671875-15.425782-101.730468 35.585937-11.519532-1.828125-44.152344-8.085937-65.910157-22.976562-10.273437-7.03125-23.421875-6.808594-33.117187-.144531l-14.808594-13.773438c-12.160156-11.308594-24.03125-9.585938-40.738281-9.585938-12.71875 0-19.679688 14.8125-11.589844 24.605469l32.640625 39.511719c7.730469 9.359375 19.976562 14.296875 32.320312 12.675781l46.316407 38.207031c8.734375 7.207032 19.636719 10.597657 30.5625 9.902344l25.34375-1.601562 6.542969 9.65625-30.386719 14.507812c-16.414063-21.144531-41.589844-33.59375-68.578125-33.59375-47.882813-.003906-86.839844 38.953125-86.839844 86.835938 0 47.882812 38.957031 86.835937 86.839844 86.835937 43.945312 0 80.503906-32.652343 86.078125-75.5l.304687-.015625 30.28125 43.492188c2.332032 3.351562 6.164063 5.351562 10.242188 5.351562h50.648437c4.144531 0 7.5-3.359375 7.5-7.5 0-4.144531-3.355469-7.5-7.5-7.5h-49.332031l-28.753906-41.300781h40.058594c19.691406 23.621094 57.953124 12.660156 62.601562-17.335937 17.058594 9.664062 37.660156 15.683593 57.507812 15.058593-3.433593 13.914063-6.261718 29.355469-8.046874 43.578125h-39.03125c-4.140626 0-7.5 3.359375-7.5 7.5s3.355468 7.5 7.5 7.5h41.261718c6.324219 0 11.652344-4.734375 12.394532-11.015625.027343-.230469.0625-.46875.089843-.699219 5.449219 8.082032 12.234375 15.285157 20.066407 21.140626 56.925781 42.5625 138.792968 1.851562 138.792968-69.589844 0-22.527344-8.660156-43.878906-24.035156-59.960938 3.484375-5.28125 2.238281-12.234375-2.667969-16.007812zm-243.621093 5.789062 9.265624-19.445312c3.972657-8.339844 10.691407-15.242188 18.917969-19.4375 6.125-3.121094 70.070313-35.914063 75.636719-36.453125 4.191406-.402344 8.507812 1.765625 11.957031 4.183593-9.503906 4.144532-65.734375 29.882813-77.945312 39.75-10.160157 8.210938-17.539063 19.078126-21.511719 31.121094-5.441406-.816406-11.171875-.667968-16.320312.28125zm-62.972657-34.789062c10.546875-2.121094 6.941407-1.394532 25.367188-5.101563l26.183593 28.988281c-3.277343 6.882813-6.507812 13.660157-9.734374 20.4375-2.597657 2.019532-5.277344 4.632813-7.160157 6.828126-9.660156-14.257813-23.503906-34.695313-34.65625-51.152344zm195.328125-27.15625s.003906 0 0 0c31.125-13.039063 41.328125-38.828125 31.824219-69.457032l20.238281 29.886719c4.996094 7.382813 12.949219 12.113281 21.820313 12.980469l19.140625 1.875c3.347656 6.765625 4.449218 10.792969 8.082031 21.984375-16.585937 1.546875-28.5 9.886719-28.5 20.597656 0 3.460938 1.1875 6.652344 3.363281 9.460938-22.800781 5.648437-48.511718 15.097656-65.988281 30.640625-12.730469-15.816406-33.765625-29.574219-58.347656-35.738282 15.328125-7.558593 32.921875-15.796874 48.367187-22.230468zm42.734375-86.617188c43.828125 50.277344 37.710938 43.207032 39.851563 45.808594-7.265625-.710938-13.523438-.40625-18.105469-7.171875l-25.449219-37.582031 2.113282-1.296875c.511718-.316407 1.183593-.226563 1.589843.242187zm64.203125 107.960938c-2.84375.402344-5.941406.886718-9.21875 1.449218-6.554687-1.421874-9.53125-3.929687-10.066406-4.929687.871094-1.710937 7.234375-5.652344 18.238281-5.847656l2.351563 7.238281c.3125.957031-.308594 1.945312-1.304688 2.089844zm-74.125 68.050781c-2.515625-7.710937-.894531-2.738281-7.90625-24.234375 3.070313-2.277344 6.472656-4.46875 10.195313-6.558594 4.960937 15.207032 19.144531 58.699219 23.386719 71.707032 1 3.074218-.671876 6.382812-3.757813 7.390624-3.121094 1.015626-6.394531-.699218-7.390625-3.757812 0 0-14.527344-44.546875-14.527344-44.546875zm24.488282-11.101563-8.558594-26.246093 1.546875-.671875c15.96875-.578125 32.511719 3.640625 47.027343 13.238281zm-64.335938-111.070312c-.519531-1.601562-1.566406-2.976562-2.96875-3.910156l-21.460938-14.320313c-2.699218-1.800781-3.417968-5.4375-1.625-8.128906 1.796876-2.691406 5.445313-3.417969 8.132813-1.625l25.3125 16.890625c1.089844.726562 1.914063 1.8125 2.320313 3.058594l5.96875 18.296875c-2.984376 2.59375-6.3125 4.734375-9.863282 6.550781-.15625-.152344-.3125-.296875-.480468-.453125zm-90.617188-10.347656c12.9375 3.1875 25.410157 4.890625 52.160157 20.304687-17.175781 7.992188-48.59375 23.90625-65.492188 32.519531-11.15625 5.6875-20.265625 15.042969-25.648437 26.347657l-.164063.34375-45.945312-50.863281c32.410156-41.628907 54.679687-36.140626 85.089843-28.652344zm-172.523437 10.425781c25.851563 17.691406 63.351563 24.175781 73.988281 25.71875 5.136719 5.6875 1.636719 1.8125 14.527344 16.085937l-27.679688 5.570313c-6.765624 1.359375-13.691406-.371094-19.019531-4.75l-54.242187-44.585937c4.039062-1.242188 8.625-.644532 12.425781 1.960937zm-47.574219 18.679687-32.660156-39.492187c0-.023437.019531-.066406-.003906-.070313h.050781c16.601563 0 23.171875-1.265624 30.519531 5.566407 25.808594 24.003906 14.132813 13.773437 40.148438 35.160156-10.9375 3.695313-7.835938 2.648437-17.296875 5.847656-7.636719 1.777344-15.757813-.957031-20.757813-7.011719zm76.617188 48.863282-38.609375-31.847656c5.167969-1.746094 2.039062-.691407 13.695312-4.628907l28.164063 23.148438c7.28125 5.984375 16.675781 9.152343 26.402344 8.542969 4.914062 7.25 3.410156 5.035156 6.941406 10.246093-16.238282 1.027344-26.003906 3.277344-36.59375-5.460937zm-56.214844 81.625c-5.6875 2.714844-9.367188 8.542968-9.367188 14.847656 0 9.359375 7.847657 16.890625 17.253907 16.433594l40.125-1.945313c-5.632813 15.632813-20.597657 26.574219-37.859375 26.574219-22.195313 0-40.253906-18.058594-40.253906-40.253906 0-33.09375 38.101562-52.160156 64.53125-32.09375zm80.980469 27.734375c-5.75 34.109375-35.398438 59.757812-70.828125 59.757812-39.613282 0-71.839844-32.222656-71.839844-71.835937 0-39.613282 32.226562-71.835938 71.839844-71.835938 21.214844 0 41.082031 9.296875 54.660156 25.238282l-15.652344 7.472656c-34.453125-34.429688-94.265625-10.167969-94.265625 39.125 0 30.46875 24.789063 55.253906 55.257813 55.253906 25.796875 0 47.863281-17.804688 53.726562-42.34375 6.917969-.339844 3.210938-.160156 17.101563-.832031zm23.824219-23.21875c-5.132813 0-9.582032 3.113281-11.492188 7.601562l-86.152344 4.183594c-.828125.050781-1.523437-.621094-1.523437-1.453125 0-.554688.324219-1.070312.824219-1.308594 2.589843-1.234375 107.722656-51.429687 111.164062-53.070312 5.46875 8.070312 4.0625 5.996094 10.535156 15.546875-3.59375 9.175781-4.210937 19.347656-2.183594 28.5zm36.722656 0c-7.722656-23.402344 11.433594-47.699219 36.695312-44.578125-.183594 1.890625-.3125 4.417968-.3125 6.425781 0 4.894531 2.867188 9.363281 7.347656 11.367187.027344.015626.054688.03125.085938.042969 8.660156 3.800781 13.734375 13.210938 12.039062 22.628907-2.941406 16.273437-24.054687 23.878906-36.945312 8.59375-2.398438-2.84375-5.839844-4.480469-9.542969-4.480469zm68.347656-21.726563c-3.398438-8.011718-9.753906-14.523437-16.9375-18.019531.332031-10.847656 4.050781-21.414063 10.5625-29.996094 7.648438-10.101562 15.949219-13.976562 22.183594-17.214843 26.628906.617187 56.289062 14.898437 71.351562 35.105468-10.59375 14.015625-17.964844 32.488282-23.058594 49.296875-21.886718 2.1875-46.636718-6.257812-64.101562-19.171875zm138.597656 104.703125c-31.023437 0-58.136718-19.5-68.035156-48.714843 4.792969-24.996094 13.964844-58.847657 29.78125-78.617188l3.96875 12.171875c-40.816406 32.210937-18.03125 98.578125 34.285156 98.578125 21.539063 0 41.257813-12.660156 50.242188-32.253906 1.726562-3.765625.070312-8.21875-3.691406-9.945313-3.765626-1.726562-8.21875-.074219-9.945313 3.691407-6.546875 14.28125-20.914063 23.507812-36.605469 23.507812-22.195312 0-40.25-18.058594-40.25-40.253906 0-10.496094 4.015625-20.324219 11.058594-27.710938l11.144531 34.179688c3.59375 11.011718 15.371094 16.929687 26.304688 13.367187 10.964843-3.578125 16.941406-15.34375 13.367187-26.304687l-10.5-32.191406c12.644532 3.628906 22.839844 13.277343 27.0625 25.90625 1.3125 3.929687 5.5625 6.050781 9.488282 4.738281 3.929687-1.316407 6.050781-5.5625 4.738281-9.492188-4-11.972656-11.910157-22.003906-22.140625-28.710937l18.65625-6.375c47.375 44.058594 16.40625 124.429687-48.929688 124.429687zm0 0"/></svg>