<svg id="Capa_1" fill="#09b294" enable-background="new 0 0 512 512" height="512" viewBox="0 0 512 512" width="512" xmlns="http://www.w3.org/2000/svg"><g><path d="m487.34 292.826c2.701-3.026 5.547-6.208 8.47-9.475 3.705-4.143 5.292-9.66 4.353-15.139-.943-5.503-4.296-10.2-9.201-12.89-6.868-3.76-14.207-6.745-21.811-8.874-3.99-1.119-8.127 1.213-9.244 5.201-1.116 3.988 1.212 8.127 5.201 9.244 6.507 1.821 12.781 4.374 18.647 7.584 1.187.65 1.526 1.7 1.624 2.269.095.554.124 1.629-.747 2.603-3.376 3.773-6.65 7.434-9.716 10.871-10.02-5.445-21.494-8.541-33.677-8.541-5.479 0-10.807.647-15.932 1.831l-5.924-17.114c4.485-1.145 9.094-1.962 13.808-2.385 4.125-.37 7.169-4.015 6.799-8.141-.369-4.126-4.001-7.166-8.141-6.799-5.895.529-11.713 1.57-17.393 3.091-1.165-3.366 4.915 14.204-15.533-44.889 3.178.55 6.426.834 9.699.834 6.697 0 13.178-1.138 19.243-3.375 5.882-2.15 9.833-7.864 9.833-14.217v-49.239c0-6.381-4.072-12.144-10.15-14.346-6-2.159-12.367-3.254-18.926-3.254-13.185 0-25.429 4.474-34.434 12.154l-7.411-21.41c-3.233-9.331-12.653-14.947-22.396-13.358l-49.69 8.11c-4.088.668-6.861 4.522-6.194 8.61s4.521 6.855 8.61 6.194l49.691-8.111c2.529-.404 4.967 1.045 5.805 3.462l11.64 33.626c.012.035.018.071.03.106l1.205 3.48-37.159-7.555c-15.974-3.255-32.922.049-46.507 9.06l-58.255 38.635-54.834-2.843c-5.099-.369-9.862-2.299-13.78-5.581l-1.117-.937c-17.854-14.958-45.874-11.212-56.428 8.721-3.443 6.502-4.583 13.779-3.35 20.896-8.58 1.441-17.005 3.689-25.143 6.727-3.881 1.448-5.852 5.769-4.403 9.649 1.126 3.017 3.986 4.879 7.027 4.879.871 0 1.758-.153 2.622-.476 8.395-3.134 17.135-5.323 26.038-6.542 6.072 8.091 15.668 13.087 26.241 13.087h39.52l57.866 69.977c-1.146 2.629-2.022 5.4-2.589 8.282l-5.219-1.131c-13.457-43.05-53.527-72.729-99.029-72.729-29.816 0-57.838 12.658-77.539 34.86-5.713-.017-11.087 2.679-14.533 7.094l-9.077-4.271c-.523-.246-.713-.682-.779-.92-.104-.373-.052-.718.148-1.018 7.966-11.887 17.858-22.217 29.402-30.702 3.337-2.453 4.054-7.148 1.601-10.485s-7.148-4.054-10.485-1.601c-12.947 9.517-24.042 21.104-32.983 34.447-2.627 3.93-3.404 8.806-2.135 13.376 1.283 4.618 4.509 8.437 8.847 10.477l10.347 4.869-4.24 17.367c-1.243 5.095-.236 10.484 2.764 14.788 3.003 4.31 7.719 7.124 12.943 7.723l15.235 1.737c-.17 2.002-.275 4.017-.275 6.042 0 39.017 31.743 70.76 70.76 70.76 18.576 0 36.128-7.146 49.421-20.119 11.305-11.034 18.455-25.248 20.624-40.66l65.219 7.436c2.845.621 5.756.943 8.666.943 15.188 0 28.553-8.538 35.89-21.829.046-.084.094-.168.139-.253.027-.052.058-.101.084-.154.039-.078.072-.157.11-.235.024-.052.049-.103.073-.155 2.617-5.646 4.154-11.575 4.154-17.824 0-.344-.017-.684-.026-1.025 9.265-12.676 61.414-84.028 62.378-85.347 1.26-.653 2.499-1.355 3.709-2.118l22.649-14.294 10.223 29.533c-11.509 4.949-22.138 11.953-31.239 20.765-16.962 16.421-27.903 38.312-30.807 61.643-.644 5.189.969 10.406 4.423 14.316 3.436 3.888 8.382 6.117 13.57 6.117h14.641c3.758 35.505 33.876 63.262 70.359 63.262 39.018 0 70.761-31.743 70.761-70.762-.001-21.418-9.579-40.629-24.661-53.615zm-317.922-69.563h-42.989c-6.791 0-12.848-3.787-15.866-9.671l-.009-.015c-.444-.868-.824-1.779-1.128-2.732-1.473-4.61-1.036-9.505 1.229-13.782 6.179-11.672 23.249-12.865 33.537-4.243l1.116.937c6.376 5.342 14.133 8.473 22.433 9.052.045.004.089.006.134.009l50.265 2.606v17.841c-.001-.002-48.69-.003-48.722-.002zm-52.441 34.398c35.946 0 67.913 21.654 81.664 53.963l-23.198-5.03c-13.216-19.415-34.831-30.913-58.467-30.913-13.052 0-25.677 3.546-36.726 10.27l-23.16-5.022c16.255-14.911 37.48-23.268 59.887-23.268zm32.248 43.247-42.674-9.254c3.411-.644 6.898-.973 10.426-.973 11.818 0 22.994 3.652 32.248 10.227zm6.696 85.441c-10.475 10.224-24.305 15.854-38.944 15.854-30.746 0-55.76-25.014-55.76-55.76 0-1.456.073-2.903.184-4.342l20.474 2.335c-.038.667-.079 1.334-.079 2.007 0 19.403 15.782 35.19 35.181 35.19 17.376 0 31.841-12.662 34.677-29.241l20.46 2.333c-1.778 11.981-7.385 23.026-16.193 31.624zm-59.124-39.907c0-.103.01-.203.012-.305l39.901 4.549c-1.956 9.101-10.056 15.945-19.732 15.945-11.129.001-20.181-9.056-20.181-20.189zm164.111 3.36c-1.95 0-3.903-.224-5.804-.665-.01-.002-.021-.003-.031-.005-.267-.06-.538-.109-.816-.141l-221.297-25.231c-1.294-.148-2.022-.939-2.341-1.396-.316-.455-.803-1.404-.497-2.654l6.032-24.708c.419-1.727 2.173-2.816 3.982-2.401l236.974 51.389c-4.472 3.702-10.15 5.812-16.202 5.812zm24.702-19.319-49.718-10.781c2.192-11.819 12.572-20.8 25.017-20.8 14.033 0 25.45 11.416 25.45 25.449 0 2.096-.255 4.144-.749 6.132zm30.319-52.548-3.684 5.041-15.129-11.9c-.148-.116-.235-.271-.258-.458s.025-.357.142-.506l9.588-12.184c.136-.173.338-.263.541-.263.148 0 .298.048.423.146l14.655 11.53zm15.136-20.71-14.239-11.202c-6.799-5.348-16.679-4.168-22.027 2.629l-9.589 12.185c-2.591 3.294-3.744 7.398-3.247 11.56.496 4.161 2.584 7.88 5.878 10.47l15.546 12.229-7.088 9.698c-6.906-12.445-20.178-20.89-35.392-20.89-10.974 0-20.935 4.399-28.23 11.518l-47.264-57.157s40.569-.014 40.74-.026c.068-.004.136-.002.205-.008l.048-.005 63.922-6.151c5.687-.56 11.523.278 16.857 2.413l13.972 5.601c6.096 2.438 12.534 3.641 18.955 3.641.276 0 .552-.01.829-.015zm28.351-34.05c-1.207.761-2.452 1.444-3.727 2.051-.079.035-.158.068-.235.106-8.978 4.192-19.419 4.551-28.72.83l-13.973-5.601c-6.038-2.415-12.524-3.655-18.997-3.655-1.631 0-3.262.079-4.884.237l-55.741 5.364v-20.182l56.963-37.779c10.288-6.824 23.126-9.323 35.225-6.861l45.852 9.323 13.85 40.002zm31.078-46.236-10.821-31.26c6.161-7.985 17.145-13 28.949-13 4.822 0 9.482.797 13.831 2.361.143.052.245.152.245.238v49.239c0 .082-.031.141-.015.141-4.415 1.626-9.146 2.451-14.062 2.451-5.483 0-10.844-1.059-15.672-3.081zm37.53 154.278 6.119 17.676c1.073 3.103 3.979 5.049 7.087 5.049.813 0 1.642-.134 2.453-.415 3.914-1.354 5.989-5.626 4.635-9.54l-6.121-17.683c10.684.505 19.228 9.331 19.228 20.138 0 11.13-9.056 20.186-20.186 20.186-11.131 0-20.187-9.056-20.187-20.186 0-6.077 2.711-11.522 6.972-15.225zm-71.785 7.724c-1.22 0-1.983-.658-2.33-1.05-.357-.404-.934-1.272-.777-2.533 3.895-31.297 24.344-57.602 52.088-70.022l5.914 17.085c-21.85 10.317-37.604 31.488-40.254 56.52zm85 63.262c-30.746 0-55.76-25.015-55.76-55.762 0-21.696 12.464-40.525 30.599-49.738l6.826 19.718c-10.099 6.191-16.851 17.33-16.851 30.019 0 19.402 15.784 35.186 35.187 35.186 19.402 0 35.186-15.784 35.186-35.186s-15.784-35.187-35.186-35.187c-1.409 0-2.796.093-4.163.255l-6.832-19.736c3.556-.714 7.232-1.094 10.995-1.094 30.746 0 55.761 25.015 55.761 55.762s-25.016 55.763-55.762 55.763z"/><path d="m255.998 241.242h-23.814c-4.143 0-7.5 3.357-7.5 7.5s3.357 7.5 7.5 7.5h23.814c4.143 0 7.5-3.357 7.5-7.5s-3.357-7.5-7.5-7.5z"/><path d="m255.998 264.573h-23.814c-4.143 0-7.5 3.357-7.5 7.5s3.357 7.5 7.5 7.5h23.814c4.143 0 7.5-3.357 7.5-7.5s-3.357-7.5-7.5-7.5z"/></g></svg>