<svg id="Capa_1" enable-background="new 0 0 512 512" fill="#09b294" viewBox="0 0 512 512" xmlns="http://www.w3.org/2000/svg"><g><path d="m484.26 56.214c12.533-12.533 13.093-33.074 1.25-45.789-6.109-6.561-14.401-10.261-23.347-10.419-8.915-.167-17.363 3.237-23.69 9.565l-34.535 34.534c-2.929 2.93-2.929 7.678 0 10.607 2.929 2.928 7.678 2.928 10.606 0l34.535-34.535c3.423-3.422 7.952-5.266 12.817-5.175 4.839.086 9.327 2.091 12.637 5.645 6.403 6.875 6.009 18.071-.879 24.959l-88.755 88.755c-4.036 4.036-5.558 9.949-3.973 15.426l.147.512c8.318 28.764-13.377 45.94-13.793 46.642-9.966 9.967-23.938 14.4-37.736 12.076l21.577-21.577c3.694-3.694 5.149-9.124 3.797-14.171l-4.978-18.578c-1.353-5.045-5.327-9.019-10.373-10.371l-18.577-4.979c-5.047-1.354-10.477.104-14.171 3.797l-21.577 21.577c-2.324-13.798 2.11-27.771 12.076-37.736.718-.426 17.864-22.113 46.644-13.792.1.002 8.856 3.248 15.935-3.826l30.05-30.051c2.929-2.93 2.929-7.678 0-10.607-2.929-2.928-7.678-2.928-10.606 0l-30.05 30.051c-.172.172-.424.237-.66.168l-.504-.146c-20.966-6.062-43.577-.242-59.01 15.191 0 0-3.245 3.259-3.654 3.693h-11.732c-11.682 0-21.841 7.505-25.278 18.674l-3.291 10.692c-.346 1.125-.948 2.135-1.719 2.989-4.558-4.649-10.891-7.551-17.892-7.592v-18.303c0-8.911-7.249-16.16-16.16-16.16h-20.53c-8.911 0-16.16 7.249-16.16 16.16v12.845c-3.442-.795-7.02-1.229-10.7-1.229s-7.258.434-10.7 1.229v-12.845c0-8.911-7.249-16.16-16.16-16.16h-20.53c-8.911 0-16.16 7.249-16.16 16.16v18.304c-7.001.041-13.334 2.942-17.892 7.592-.771-.854-1.374-1.865-1.72-2.991l-3.291-10.69c-3.437-11.169-13.596-18.674-25.278-18.674h-24.81c-4.142 0-7.5 3.357-7.5 7.5s3.358 7.5 7.5 7.5h24.81c5.056 0 9.453 3.249 10.942 8.086l3.289 10.688c1.557 5.062 4.843 9.377 9.135 12.286-.206 1.297-.316 2.626-.316 3.98 0 1.847.205 3.646.582 5.382-13.376 8.877-21.393 19.636-23.837 32.056-5.248 26.663 15.746 53.425 32.613 74.929 2.155 2.747 4.208 5.367 6.092 7.845v24.548h-12.17c-11.734 0-21.28 9.546-21.28 21.28v20.92c0 10.108 6.434 19.094 16.012 22.359l17.438 5.939v22.041c0 12.479 10.152 22.63 22.63 22.63h12.69v5.05c0 4.143 3.358 7.5 7.5 7.5s7.5-3.357 7.5-7.5v-89.59c7.62 2.25 15.265 3.404 22.91 3.404s15.29-1.153 22.91-3.404v131c0 12.633-10.277 22.91-22.91 22.91s-22.91-10.277-22.91-22.91v-6.41c0-4.143-3.358-7.5-7.5-7.5s-7.5 3.357-7.5 7.5v6.41c0 20.903 17.006 37.91 37.91 37.91s37.91-17.007 37.91-37.91v-46.46h12.69c12.478 0 22.63-10.151 22.63-22.63v-22.042l17.44-5.94c9.576-3.265 16.01-12.25 16.01-22.358v-20.92c0-11.734-9.546-21.28-21.28-21.28h-12.17v-24.548c1.884-2.478 3.937-5.099 6.092-7.845 16.868-21.504 37.861-48.266 32.613-74.929-2.444-12.419-10.461-23.179-23.837-32.056.378-1.735.582-3.535.582-5.382 0-1.354-.11-2.683-.316-3.98 4.292-2.908 7.578-7.222 9.134-12.284l3.29-10.69c2.829-9.194 12.173-8.012 12.421-8.086-5.427 11.444-7.018 24.497-4.228 37.306 1.081 4.96 4.778 8.929 9.648 10.358 4.87 1.428 10.125.088 13.716-3.501l22.944-22.944 18.209 4.88 4.878 18.208-22.943 22.943c-3.589 3.59-4.931 8.846-3.502 13.716 1.429 4.871 5.398 8.568 10.358 9.649 4.164.907 8.352 1.352 12.504 1.352 15.261-.001 30.013-6.003 41.089-17.079.239-.408 28.315-24.352 17.599-61.411l-.148-.513c-.067-.233-.002-.484.169-.655zm-248.578 111.486c0 5.669-4.612 10.28-10.28 10.28h-16.159c-.838-7.52-3.439-14.512-7.377-20.561h23.535c5.669.001 10.281 4.612 10.281 10.281zm-96.591 57.224c6.8 3.756 14.608 5.9 22.91 5.9s16.111-2.145 22.91-5.9v50.567c-6.583-4.336-14.455-6.87-22.91-6.87s-16.327 2.533-22.91 6.87zm49.77-101.964h20.53c.64 0 1.16.521 1.16 1.16v18.3h-22.85v-18.3c.001-.64.521-1.16 1.16-1.16zm5.684 60.32c0 17.944-14.599 32.544-32.544 32.544s-32.544-14.6-32.544-32.544 14.599-32.544 32.544-32.544 32.544 14.6 32.544 32.544zm-79.934-60.32h20.53c.64 0 1.16.521 1.16 1.16v18.3h-22.85v-18.3c.001-.64.521-1.16 1.16-1.16zm-16.01 34.46h23.535c-3.938 6.049-6.538 13.041-7.377 20.561h-16.158c-5.668 0-10.28-4.611-10.28-10.28s4.612-10.281 10.28-10.281zm-33.817 50.614c1.618-8.225 7.064-15.421 16.557-21.888 2.159 2.021 4.668 3.674 7.43 4.844v72.49c-13.556-17.619-27.419-38.006-23.987-55.446zm11.387 154.787c-3.499-1.193-5.85-4.473-5.85-8.161v-20.92c0-3.463 2.817-6.28 6.28-6.28h12.17v39.652zm35.23 49.809c-4.207 0-7.63-3.423-7.63-7.63v-212.02h11.684c1.458 7.003 4.462 13.443 8.636 18.952v80.955c-2.469 5.327-3.858 11.254-3.858 17.501v16.066c0 3.682 1.431 7.117 3.858 9.673v76.502h-12.69zm23.832-86.806v-15.436c0-14.76 12.008-26.768 26.768-26.768s26.768 12.008 26.768 26.768v15.436c-18.004 7.606-35.531 7.606-53.536 0zm84.998 79.176c0 4.207-3.423 7.63-7.63 7.63h-12.69v-76.501c2.426-2.556 3.858-5.992 3.858-9.673v-16.066c0-6.248-1.388-12.174-3.858-17.501v-80.955c4.174-5.509 7.178-11.949 8.636-18.952h11.684zm27.17-77.54c3.463 0 6.28 2.817 6.28 6.28v20.92c0 3.688-2.351 6.968-5.848 8.16l-12.602 4.292v-39.652zm11.818-119.426c3.432 17.439-10.431 37.827-23.987 55.446v-72.49c2.763-1.17 5.271-2.823 7.43-4.844 9.493 6.467 14.938 13.664 16.557 21.888z"/></g><g/><g/><g/><g/><g/><g/><g/><g/><g/><g/><g/><g/><g/><g/><g/></svg>